<?xml version="1.0" standalone="no"?>
<!DOCTYPE svg PUBLIC "-//W3C//DTD SVG 20010904//EN"
 "http://www.w3.org/TR/2001/REC-SVG-20010904/DTD/svg10.dtd">
<svg version="1.0" xmlns="http://www.w3.org/2000/svg"
 width="450.000000pt" height="450.000000pt" viewBox="0 0 450.000000 450.000000"
 preserveAspectRatio="xMidYMid meet">
<metadata>
Created by potrace 1.14, written by Peter Selinger 2001-2017
</metadata>
<g transform="translate(0.000000,450.000000) scale(0.100000,-0.100000)"
fill="#000000" stroke="none">
<path d="M2267 4074 c-1 -1 -51 -4 -111 -8 -119 -7 -188 -20 -310 -60 -43 -14
-87 -26 -97 -26 -11 0 -27 -4 -37 -9 -9 -5 -43 -17 -75 -27 -70 -21 -187 -96
-240 -153 -21 -23 -44 -41 -49 -41 -6 0 -48 -37 -92 -83 -51 -52 -102 -93
-138 -111 -31 -16 -68 -43 -81 -60 -14 -17 -44 -51 -67 -76 -35 -38 -70 -89
-75 -110 -1 -3 -7 -18 -13 -33 -7 -16 -12 -34 -12 -41 0 -8 -12 -49 -26 -92
-23 -69 -25 -91 -22 -174 5 -92 17 -137 53 -184 11 -15 27 -18 88 -18 l75 0 6
-30 c11 -58 7 -94 -15 -114 -47 -42 -59 -86 -54 -186 5 -84 8 -95 30 -113 28
-23 25 -49 -14 -118 -30 -53 -52 -142 -44 -180 9 -48 37 -107 74 -158 41 -55
96 -119 104 -119 8 0 69 -44 73 -52 2 -5 8 -8 12 -8 5 0 37 -13 72 -29 95 -45
163 -62 183 -47 15 11 14 13 -5 31 -12 11 -25 19 -29 18 -12 -4 -57 9 -132 38
-113 45 -217 140 -282 260 -37 69 -33 115 19 232 l38 85 49 -31 c48 -29 54
-30 163 -30 106 0 115 2 146 26 96 75 148 136 148 173 0 22 4 23 95 41 11 2
39 -1 63 -8 l42 -12 0 -50 c0 -46 4 -54 40 -89 23 -21 43 -38 45 -38 2 0 30
-17 62 -38 65 -44 58 -42 211 -43 l112 0 48 35 c26 19 70 58 97 86 49 50 50
52 55 125 l5 74 57 -23 c60 -25 234 -126 303 -177 22 -16 65 -47 95 -69 30
-22 62 -45 71 -52 11 -9 18 -35 21 -81 5 -79 16 -92 63 -73 41 17 142 3 169
-24 32 -31 33 -107 2 -168 -36 -70 -82 -95 -149 -79 -55 12 -79 0 -53 -26 15
-14 11 -18 -37 -45 -105 -60 -209 -97 -300 -107 -23 -3 -73 -10 -112 -15 -38
-6 -86 -11 -105 -13 -28 -2 -36 -7 -38 -25 -3 -22 -2 -23 60 -18 35 2 71 7 80
11 9 4 29 0 44 -8 l28 -14 -63 -62 c-62 -61 -112 -90 -200 -117 -52 -16 -153
-19 -179 -5 -9 5 -38 16 -63 25 -49 18 -78 43 -102 89 -14 26 -13 31 4 48 12
12 33 19 56 19 44 0 67 12 61 31 -3 10 -25 14 -74 15 -107 3 -341 39 -485 75
-58 14 -93 -8 -49 -31 11 -6 41 -15 67 -20 92 -19 264 -50 271 -48 16 3 102
-15 102 -22 0 -4 -24 -10 -52 -13 -106 -11 -174 -69 -269 -231 -35 -60 -83
-129 -105 -155 -53 -59 -84 -114 -84 -149 0 -36 -14 -56 -34 -49 -12 5 -16 20
-16 59 0 73 -25 117 -82 145 -46 22 -46 23 -43 65 2 24 4 64 4 91 1 45 3 48
32 54 37 7 49 33 38 82 -9 39 -23 51 -61 51 -21 0 -29 6 -34 25 -10 42 -80 58
-221 49 -65 -4 -125 -8 -133 -10 -8 -1 -25 -3 -37 -3 -16 -1 -28 -12 -40 -38
-14 -28 -26 -39 -48 -43 -25 -4 -32 -12 -44 -48 -16 -51 -4 -92 27 -92 23 0
42 -89 42 -204 0 -83 7 -140 21 -167 4 -9 11 -38 14 -65 12 -102 12 -101 62
-108 25 -3 88 -6 139 -6 l94 0 6 -27 c13 -60 21 -78 39 -81 15 -3 17 1 12 30
-3 18 -8 44 -12 57 -7 20 -5 22 12 17 35 -11 52 27 68 154 1 14 5 32 8 40 3 8
8 27 11 43 6 24 3 27 -19 27 -30 0 -41 20 -25 49 14 27 69 28 101 2 20 -16 24
-29 25 -73 1 -54 15 -101 33 -112 13 -9 65 -111 81 -161 7 -22 16 -44 21 -49
9 -10 48 31 49 53 0 8 6 11 17 7 9 -4 38 -10 63 -13 25 -3 50 -12 57 -20 7 -9
19 -13 27 -10 12 5 14 12 6 31 -15 41 -33 187 -34 286 -1 77 -4 95 -16 95 -13
0 -15 -21 -14 -135 1 -74 6 -152 12 -172 6 -21 7 -39 4 -41 -4 -2 -30 1 -58 5
-37 7 -64 20 -93 44 -59 51 -67 69 -42 101 12 14 21 36 21 49 0 38 16 69 63
122 24 27 70 92 102 143 109 179 116 187 179 219 77 39 118 40 137 3 20 -40
59 -82 94 -100 38 -21 161 -53 201 -53 38 0 123 25 192 56 53 24 158 118 181
163 11 20 18 22 49 17 21 -3 55 -15 76 -26 22 -11 56 -23 75 -26 69 -11 176
-65 232 -117 23 -20 47 -37 53 -37 22 0 71 -76 92 -143 12 -37 29 -77 36 -90
8 -12 21 -47 28 -77 7 -30 23 -73 35 -95 13 -22 26 -57 30 -77 l7 -36 -61 -10
c-33 -6 -75 -18 -93 -26 -56 -25 -168 -48 -276 -57 -57 -4 -122 -11 -146 -14
-42 -7 -43 -6 -50 25 -12 61 -6 257 10 335 16 77 10 111 -14 83 -31 -38 -51
-347 -29 -452 l8 -39 47 7 c26 4 83 10 127 12 122 7 261 36 343 70 42 18 72
18 72 -1 0 -7 6 -18 13 -22 7 -4 21 -21 30 -36 15 -23 21 -26 33 -17 7 7 11
17 7 23 -15 24 -13 80 3 98 20 22 12 102 -15 140 -10 14 -26 52 -36 85 -16 55
-25 79 -52 129 -6 11 -16 40 -23 65 -19 69 -22 75 -71 128 -72 76 -211 156
-319 183 -63 16 -134 49 -124 58 5 5 31 14 58 20 28 7 78 26 112 42 47 23 67
28 81 21 19 -11 163 15 218 39 42 19 136 91 174 134 62 71 97 175 105 317 2
36 6 70 9 75 3 4 8 53 12 108 7 113 31 263 44 279 27 33 52 155 52 251 0 105
-21 252 -45 307 -8 18 -22 60 -32 93 -41 143 -179 365 -298 478 -104 100 -239
168 -339 171 -40 1 -62 6 -70 16 -17 23 -134 102 -187 127 -75 36 -190 56
-328 57 -41 1 -74 0 -75 0z m-422 -1314 c83 -10 145 -18 139 -19 -6 -1 -42
-25 -80 -54 -85 -65 -123 -118 -124 -170 0 -32 -3 -37 -17 -33 -50 14 -83 16
-128 7 -27 -5 -52 -8 -54 -6 -2 2 -7 26 -12 52 -7 37 -20 58 -57 96 -77 79
-90 86 -183 92 -109 6 -183 -6 -214 -35 l-25 -23 0 35 c0 20 -3 44 -7 54 -6
15 -2 16 33 9 75 -14 163 -20 191 -12 15 4 45 8 66 8 20 1 37 5 37 10 0 15
278 8 435 -11z m930 -56 c39 -2 89 -4 113 -4 87 2 92 -6 117 -180 14 -93 15
-284 1 -297 -4 -4 -85 45 -96 58 -3 3 -54 39 -115 80 -111 74 -287 169 -314
169 -18 0 -51 29 -51 45 0 6 -29 42 -65 79 l-65 68 203 -7 c111 -3 234 -9 272
-11z m-601 -5 l80 -4 53 -53 c81 -82 93 -101 93 -143 0 -35 -13 -53 -22 -30
-3 10 -176 58 -233 66 -16 2 -51 7 -78 11 -43 6 -50 4 -73 -21 -14 -15 -23
-33 -20 -40 2 -7 32 -16 68 -20 35 -4 68 -11 73 -15 6 -4 17 -8 25 -8 8 -1 35
-6 60 -11 25 -6 56 -13 70 -16 14 -3 43 -8 65 -11 37 -6 41 -4 52 22 l11 29 1
-28 c1 -34 -46 -106 -86 -132 -15 -10 -38 -28 -51 -41 -17 -17 -41 -24 -95
-30 -40 -4 -76 -6 -82 -4 -5 2 -29 4 -52 5 -39 3 -87 30 -141 82 -7 7 -18 13
-22 13 -5 0 -17 11 -26 24 -11 18 -15 48 -15 111 1 78 3 90 28 125 15 21 47
50 71 65 24 15 48 35 54 44 10 17 31 18 192 10z m-811 -18 c32 -1 46 -10 102
-67 47 -47 65 -72 65 -91 l0 -27 -20 22 c-11 12 -32 25 -45 28 -29 7 -154 -14
-173 -29 -7 -5 -15 -8 -18 -5 -2 3 -21 0 -42 -7 -39 -13 -68 -54 -58 -82 7
-17 19 -16 146 10 41 8 107 18 147 22 l72 6 -8 -29 c-14 -48 -27 -66 -88 -120
-59 -53 -62 -54 -163 -55 -91 -1 -115 4 -149 33 l-33 28 16 75 c14 62 15 79 4
103 -15 35 -26 44 -55 44 -38 0 -21 34 17 35 8 0 17 12 20 26 5 29 53 74 85
81 11 3 47 4 80 2 33 -1 77 -2 98 -3z m-288 -230 c-10 -51 -13 -74 -14 -90 -1
-11 -4 -11 -16 -1 -10 9 -15 32 -15 75 0 62 0 62 26 57 24 -4 26 -8 19 -41z
m180 -992 c5 -5 -23 -9 -70 -10 -44 0 -96 -2 -115 -4 -159 -16 -170 -16 -170
0 0 8 1 16 3 16 1 1 58 7 127 13 121 11 202 6 225 -15z m88 -61 c24 -12 22
-54 -3 -61 -11 -3 -23 -1 -26 4 -12 19 -464 0 -489 -21 -7 -5 -15 -7 -18 -3
-12 11 -7 50 7 62 34 29 480 45 529 19z m-80 -86 c14 -4 17 -17 17 -88 0 -94
10 -84 -90 -89 -25 -1 -104 -5 -176 -9 l-131 -7 -11 58 c-25 129 -28 122 71
124 34 0 85 4 112 9 53 8 178 10 208 2z m-24 -247 c-26 -43 -22 -87 9 -100 25
-11 28 -23 9 -31 -7 -2 -92 -1 -188 3 l-174 8 -9 58 c-5 37 -5 62 1 68 5 5 63
10 129 10 65 1 137 4 159 9 22 4 50 8 62 9 l22 1 -20 -35z m-105 -172 l128 -6
-6 -50 c-3 -28 -10 -55 -15 -60 -9 -9 -306 -6 -315 4 -3 3 -8 31 -12 62 l-7
57 49 0 c27 0 107 -3 178 -7z"/>
<path d="M1671 2169 c-29 -4 -58 -13 -62 -21 -11 -16 -3 -88 13 -125 17 -37
76 -101 109 -119 74 -38 199 73 215 191 6 37 3 44 -21 63 -24 19 -39 22 -114
20 -47 -1 -110 -5 -140 -9z m232 -50 c25 -40 -61 -171 -119 -182 -21 -4 -36 4
-71 36 -40 37 -44 45 -39 76 3 19 18 47 33 63 26 28 31 29 107 26 60 -2 81 -7
89 -19z"/>
</g>
</svg>
